<?xml version="1.0" encoding="UTF-8" standalone="no"?>
<!-- Created with Inkscape (http://www.inkscape.org/) -->

<svg
   xmlns:dc="http://purl.org/dc/elements/1.1/"
   xmlns:cc="http://creativecommons.org/ns#"
   xmlns:rdf="http://www.w3.org/1999/02/22-rdf-syntax-ns#"
   xmlns:svg="http://www.w3.org/2000/svg"
   xmlns="http://www.w3.org/2000/svg"
   xmlns:sodipodi="http://sodipodi.sourceforge.net/DTD/sodipodi-0.dtd"
   xmlns:inkscape="http://www.inkscape.org/namespaces/inkscape"
   width="25cm"
   height="25cm"
   viewBox="0 0 885.82677 885.82674"
   id="svg2"
   version="1.1"
   inkscape:version="0.91 r13725"
   inkscape:export-filename="/home/megb269/dev/idsm/img/robot.png"
   inkscape:export-xdpi="27.030001"
   inkscape:export-ydpi="27.030001"
   sodipodi:docname="robot.svg">
  <defs
     id="defs4" />
  <sodipodi:namedview
     id="base"
     pagecolor="#000000"
     bordercolor="#666666"
     borderopacity="1.0"
     inkscape:pageopacity="0"
     inkscape:pageshadow="2"
     inkscape:zoom="0.52098222"
     inkscape:cx="20.692187"
     inkscape:cy="307.32887"
     inkscape:document-units="px"
     inkscape:current-layer="layer1"
     showgrid="false"
     units="cm"
     inkscape:showpageshadow="false"
     inkscape:window-width="1627"
     inkscape:window-height="1026"
     inkscape:window-x="53"
     inkscape:window-y="24"
     inkscape:window-maximized="1" />
  <metadata
     id="metadata7">
    <rdf:RDF>
      <cc:Work
         rdf:about="">
        <dc:format>image/svg+xml</dc:format>
        <dc:type
           rdf:resource="http://purl.org/dc/dcmitype/StillImage" />
        <dc:title></dc:title>
      </cc:Work>
    </rdf:RDF>
  </metadata>
  <g
     inkscape:label="Layer 1"
     inkscape:groupmode="layer"
     id="layer1"
     transform="translate(0,-166.53549)">
    <path
       style="fill:#b4e2ff"
       d="m 322.06414,1024.2103 c -10.74337,-3.3549 -17.24649,-7.2136 -22.93295,-13.6076 -7.39886,-8.3195 -12.24431,-18.95616 -13.20535,-28.98845 l -0.7696,-8.03377 -9.15202,-0.39739 -9.15201,-0.39739 0.67946,-6.02831 c 0.3737,-3.31543 2.86252,-10.44526 5.5307,-15.84401 15.79449,-31.95787 67.25499,-57.86652 129.37448,-65.1356 9.11595,-1.06675 17.15981,-2.30125 17.87523,-2.74351 0.79471,-0.49111 1.30076,-14.75075 1.30076,-36.65357 l 0,-35.84961 -48.92469,-0.34933 -48.92468,-0.34919 -0.34021,-114.82324 -0.34022,-114.82323 -14.63672,0 -14.63673,0 0,105.96168 c 0,104.02918 0.0475,105.97418 2.60266,106.64236 2.16755,0.56686 2.66833,2.04831 2.99538,8.86155 l 0.39273,8.18088 4.99232,0.41323 4.99231,0.41309 0,23.2172 0,23.21705 -10.65027,0 -10.65027,0 0,-12.0171 0,-12.01723 -19.63644,0.3685 -19.63643,0.36837 -0.38465,11.64873 -0.38466,11.64873 -10.59843,0 -10.59845,0 0,-23.21306 0,-23.2132 4.32668,-0.41709 c 4.32646,-0.41722 4.32668,-0.41762 4.72302,-8.73775 0.34439,-7.2298 0.73702,-8.32052 2.99539,-8.32052 2.55923,0 2.59904,-1.89615 2.59904,-123.8094 l 0,-123.8094 25.96003,0 25.96004,0 0,3.99385 0,3.99385 14.55569,0 14.5557,0 0.42125,-3.66103 0.42124,-3.66103 119.14991,0 c 104.94379,0 119.17122,0.23804 119.32911,1.99693 0.0985,1.09831 0.24842,2.74577 0.33282,3.66103 0.11316,1.22119 4.05189,1.6641 14.79775,1.6641 l 14.64412,0 0,-3.99385 0,-3.99385 25.96004,0 25.96003,0 0,123.8094 c 0,121.91325 0.0399,123.8094 2.59907,123.8094 2.25826,0 2.65099,1.09072 2.99539,8.32052 0.39632,8.32013 0.39659,8.32053 4.72299,8.73775 l 4.32668,0.41709 0,23.2132 0,23.21306 -10.59849,0 -10.59835,0 -0.38474,-11.64873 -0.38461,-11.64873 -19.63643,-0.36837 -19.63644,-0.3685 0,12.01723 0,12.0171 -10.65027,0 -10.65027,0 0,-23.21705 0,-23.2172 4.99231,-0.41309 4.99232,-0.41323 0.39273,-8.18088 c 0.32749,-6.82243 0.82619,-8.29429 3.00337,-8.86368 2.56938,-0.6719 2.60532,-2.35465 2.26984,-106.30941 l -0.34081,-105.62686 -13.86958,-0.38181 c -10.19364,-0.28077 -14.1618,0.0719 -14.97215,1.33128 -0.6064,0.94215 -1.09219,51.73609 -1.07954,112.8753 0.0133,61.13921 0.0133,112.22457 0,113.52297 -0.0266,2.21805 -2.94586,2.35491 -48.28686,2.26451 l -48.25904,-0.0958 -0.35386,36.67554 c -0.25094,26.05309 0.0719,36.67541 1.11455,36.67541 0.80743,0 8.95928,0.92338 18.11532,2.05204 62.74167,7.73369 113.24406,33.24362 129.0247,65.17366 2.65977,5.38159 5.14168,12.49743 5.51537,15.81286 l 0.67936,6.02832 -9.15191,0.39739 -9.15205,0.39739 -0.76961,8.03376 c -2.45196,25.59509 -26.93427,46.50919 -51.72038,44.18239 -24.20727,-2.2725 -43.19736,-20.8359 -45.91838,-44.88677 l -0.92164,-8.14679 -4.88195,0.4087 c -4.75801,0.39832 -4.89367,0.56074 -5.34471,6.39948 -1.53044,19.81443 -13.21619,36.12168 -30.52581,42.59818 -14.72586,5.5096 -24.81238,4.9633 -39.86861,-2.1595 -14.0765,-6.6592 -24.93582,-23.53922 -26.01527,-40.43868 -0.37361,-5.84926 -0.49732,-6.00036 -5.23588,-6.39562 l -4.85324,-0.40497 -0.93199,8.03017 c -1.1835,10.19697 -8.04828,24.5139 -14.83253,30.9338 -12.89501,12.2029 -31.64733,17.2032 -46.78638,12.4756 z m 24.9968,-18.1211 c 11.32358,-5.1258 17.74765,-13.84119 19.40365,-26.32477 l 0.90863,-6.84959 -31.97989,0 c -25.36639,0 -32.12027,0.36584 -32.65868,1.76888 -1.10122,2.86971 1.49536,14.18602 4.29411,18.71452 8.33948,13.49346 25.9358,19.07196 40.03218,12.69096 z m 108.50933,-0.3599 c 8.66403,-4.0346 14.7066,-11.05955 17.35785,-20.17965 3.70563,-12.74664 5.65649,-11.96917 -30.03298,-11.96917 l -31.26693,0 -0.42949,3.02654 c -0.68297,4.81273 3.67789,16.09349 8.22202,21.26899 5.36228,6.10739 15.76095,10.95749 23.49264,10.95749 3.48151,0 8.78292,-1.3002 12.65689,-3.1042 z m 108.48995,0.3558 c 6.8669,-3.1132 11.04234,-6.70767 14.73771,-12.68686 2.80928,-4.5454 5.39397,-15.8484 4.28514,-18.73822 -0.55528,-1.44684 -6.75746,-1.72388 -32.15436,-1.43606 l -31.4665,0.35652 0.32697,6.36514 c 1.07714,20.96888 24.7913,34.97068 44.27104,26.13948 z M 381.40806,744.99904 c 0.90444,-0.90447 1.59754,-5.23634 1.59754,-9.98463 l 0,-8.38708 -9.98462,0 -9.98463,0 0,9.20809 c 0,6.12071 0.55794,9.43321 1.6641,9.87945 3.33465,1.34553 15.15254,0.83925 16.70761,-0.71583 z m 28.11163,-0.26492 c 0.89801,-1.08207 1.3847,-5.12651 1.16147,-9.65181 l -0.38424,-7.78934 -8.98616,-0.39366 -8.98617,-0.39366 0,10.04546 0,10.04547 7.8247,0 c 5.08012,0 8.36686,-0.65326 9.3704,-1.86246 z m 29.92304,-0.24336 c 0.44445,-1.15822 0.80808,-5.6513 0.80808,-9.98463 l 0,-7.8788 -9.31899,0 -9.31898,0 0,9.98462 0,9.98463 8.51091,0 c 6.53274,0 8.69873,-0.48938 9.31898,-2.10582 z m 24.7712,-7.87881 0,-9.98462 -9.319,0 -9.31898,0 0,7.8788 c 0,11.78386 0.25687,12.09045 10.12709,12.09045 l 8.51089,0 0,-9.98463 z m 29.28825,-0.0612 0,-10.04547 -8.98617,0.39366 -8.98616,0.39366 -0.41576,6.56815 c -0.75497,11.92791 -0.13606,12.73546 9.76004,12.73546 l 8.62805,0 0,-10.04546 z m 27.18242,9.23737 c 1.63841,-0.62863 2.10582,-2.84495 2.10582,-9.98462 l 0,-9.17654 -9.98463,0 -9.98462,0 0,8.38708 c 0,4.74829 0.69306,9.08016 1.59754,9.98463 1.66357,1.66358 12.60419,2.19462 16.26589,0.78945 z M 382.75571,711.40543 c 0.22867,-3.61258 0.0607,-7.98278 -0.37321,-9.71172 -0.74446,-2.96623 -1.29373,-3.12133 -9.73475,-2.75083 l -8.94576,0.39273 -0.39234,9.71131 -0.39235,9.71132 9.71133,-0.39233 9.71133,-0.39233 0.41575,-6.56815 z m 27.39878,5.12797 c 0.44445,-1.15822 0.80808,-4.70369 0.80808,-7.87881 0,-9.45757 -0.53451,-9.98462 -10.12707,-9.98462 l -8.51091,0 0,9.98462 0,9.98463 8.51091,0 c 6.53275,0 8.69873,-0.48938 9.31899,-2.10582 z m 29.43068,-7.87881 0,-9.31898 -8.98617,-0.39366 -8.98616,-0.39366 0,10.1063 0,10.10631 8.98616,-0.39366 8.98617,-0.39366 0,-9.31899 z m 24.62876,0 0,-9.98462 -8.51089,0 c -6.53277,0 -8.69876,0.48951 -9.31902,2.10582 -1.09112,2.84336 -1.03017,15.86637 0.0795,16.97587 0.48813,0.48818 4.68167,0.88756 9.31901,0.88756 l 8.43142,0 0,-9.98463 z m 29.28825,0 0,-9.98462 -8.5109,0 c -6.53274,0 -8.69874,0.48951 -9.31899,2.10582 -1.09112,2.84336 -1.03014,15.86637 0.0799,16.97587 0.48805,0.48818 4.68159,0.88756 9.31899,0.88756 l 8.43142,0 0,-9.98463 z m 28.6226,0 0,-9.31898 -8.53206,-0.40178 c -5.92515,-0.27904 -8.86809,0.1278 -9.63144,1.33128 -1.34527,2.12073 -1.50462,16.23461 -0.1981,17.54113 0.51814,0.51813 4.86145,0.76775 9.65181,0.55474 l 8.70979,-0.3874 0,-9.31899 z m 0,-71.88932 0,-33.2821 -79.2114,0 -79.21139,0 -0.35764,31.92445 c -0.19671,17.55857 -0.0639,32.68994 0.2951,33.62557 0.52165,1.35937 16.50162,1.63202 79.56902,1.35764 l 78.91631,-0.34347 0,-33.28209 z M 404.97179,523.50163 c -46.52407,-5.75194 -88.5136,-24.19275 -112.67834,-49.48568 -11.28391,-11.81075 -16.9286,-20.90613 -21.1775,-34.12356 -5.63012,-17.51423 -1.8959,-39.62693 9.50511,-56.28578 18.42883,-26.92771 57.01327,-49.60155 100.24311,-58.90705 10.30774,-2.2188 10.54614,-2.36154 12.64719,-7.57259 4.99425,-12.38668 15.03935,-19.9922 32.13742,-24.33249 l 9.94254,-2.52388 0.3618,-24.67368 0.3618,-24.67369 -5.5654,-3.76848 c -7.32316,-4.95871 -10.50177,-9.45358 -11.39509,-16.11381 -1.03896,-7.74606 0.48986,-14.22206 4.47577,-18.95904 7.49084,-8.90236 19.82711,-11.69107 29.61903,-6.69561 10.14646,5.17636 14.59454,13.93867 13.02309,25.65465 -0.89329,6.66023 -4.07186,11.1551 -11.39508,16.11381 l -5.56541,3.76848 0.36181,24.67369 0.3618,24.67368 9.52269,2.41727 c 17.46937,4.43443 27.78056,12.04455 32.41623,23.92436 2.32735,5.96428 2.33906,5.97208 12.1461,8.07844 43.88204,9.42498 81.94544,31.37148 99.96624,57.63829 8.30747,12.10876 11.82632,22.19219 12.65465,36.26288 1.26432,21.476 -5.94086,37.64291 -25.4881,57.18946 -23.60193,23.60121 -60.14088,40.10659 -103.27621,46.65211 -19.77009,2.99991 -63.08314,3.55599 -83.20525,1.06822 z m -21.83202,-76.6709 c 25.26351,-8.69709 33.13299,-39.85366 14.71753,-58.26912 -18.21714,-18.21714 -48.60713,-12.10141 -57.46134,11.56361 -4.73692,12.66056 -2.37378,26.64031 6.1168,36.18548 8.98628,10.10246 24.71616,14.6204 36.62701,10.52003 z M 364.1325,428.7143 c -6.48506,-4.27697 -9.08386,-8.83315 -9.08386,-15.92572 0,-5.4954 0.7068,-7.37509 4.36394,-11.60578 3.73156,-4.31679 5.33935,-5.14204 11.09544,-5.69513 11.6927,-1.12351 20.49563,6.51976 20.47651,17.77904 -0.0226,13.3127 -16.08128,22.55103 -26.85203,15.44759 z m 164.02007,15.85281 c 8.71631,-4.49059 14.26537,-10.42074 17.27287,-18.45892 13.48817,-36.05023 -30.30614,-64.69647 -57.43424,-37.56831 -6.31402,6.314 -10.46443,15.77565 -10.46443,23.85556 0,14.87343 9.59616,28.27089 24.56645,34.29796 6.21257,2.5012 19.12189,1.44787 26.05935,-2.12629 z M 504.49352,428.8924 c -8.94223,-4.40837 -12.35205,-16.67653 -7.05141,-25.37 3.75129,-6.15241 9.68962,-8.82139 17.87662,-8.03473 5.75607,0.55309 7.36386,1.37834 11.09545,5.69513 13.05097,15.09768 -3.93887,36.57426 -21.92066,27.7096 z"
       id="path4181"
       inkscape:connector-curvature="0" />
  </g>
</svg>
