<?xml version="1.0" encoding="UTF-8" standalone="no"?>
<!-- Created with Inkscape (http://www.inkscape.org/) -->

<svg
   xmlns:dc="http://purl.org/dc/elements/1.1/"
   xmlns:cc="http://creativecommons.org/ns#"
   xmlns:rdf="http://www.w3.org/1999/02/22-rdf-syntax-ns#"
   xmlns:svg="http://www.w3.org/2000/svg"
   xmlns="http://www.w3.org/2000/svg"
   xmlns:sodipodi="http://sodipodi.sourceforge.net/DTD/sodipodi-0.dtd"
   xmlns:inkscape="http://www.inkscape.org/namespaces/inkscape"
   width="25cm"
   height="25cm"
   viewBox="0 0 885.82677 885.82674"
   id="svg2"
   version="1.1"
   inkscape:version="0.91 r"
   inkscape:export-filename="/home/megb269/dev/idsm/img/lightbulb.png"
   inkscape:export-xdpi="26.01"
   inkscape:export-ydpi="26.01"
   sodipodi:docname="lightbulb.svg">
  <defs
     id="defs4">
    <filter
       inkscape:collect="always"
       style="color-interpolation-filters:sRGB"
       id="filter4411"
       x="-0.35116682"
       width="1.7023336"
       y="-0.21930989"
       height="1.4386198">
      <feGaussianBlur
         inkscape:collect="always"
         stdDeviation="64.687031"
         id="feGaussianBlur4413" />
    </filter>
  </defs>
  <sodipodi:namedview
     id="base"
     pagecolor="#000000"
     bordercolor="#666666"
     borderopacity="1.0"
     inkscape:pageopacity="0"
     inkscape:pageshadow="2"
     inkscape:zoom="0.52098222"
     inkscape:cx="689.62097"
     inkscape:cy="307.32887"
     inkscape:document-units="px"
     inkscape:current-layer="layer1"
     showgrid="false"
     units="cm"
     inkscape:showpageshadow="false"
     inkscape:window-width="1855"
     inkscape:window-height="1056"
     inkscape:window-x="65"
     inkscape:window-y="24"
     inkscape:window-maximized="1" />
  <metadata
     id="metadata7">
    <rdf:RDF>
      <cc:Work
         rdf:about="">
        <dc:format>image/svg+xml</dc:format>
        <dc:type
           rdf:resource="http://purl.org/dc/dcmitype/StillImage" />
        <dc:title></dc:title>
      </cc:Work>
    </rdf:RDF>
  </metadata>
  <g
     inkscape:label="Layer 1"
     inkscape:groupmode="layer"
     id="layer1"
     transform="translate(0,-166.53549)">
    <path
       style="fill:#ffff99"
       d="m 383.5418,961.1158 c -8.76241,-3.06609 -15.95488,-8.4046 -21.34062,-15.83944 -4.15466,-5.73525 -8.20046,-16.95014 -8.20046,-22.7311 l 0,-3.21064 88.81492,0 88.81507,0 -0.89528,6.57777 c -1.96127,14.41088 -12.02332,27.7953 -25.62281,34.08353 -6.14807,2.84272 -8.53558,2.97289 -60.40798,3.29191 -49.06252,0.30177 -54.66206,0.10251 -61.16284,-2.17203 z m -60.76761,-65.8734 c -9.16538,-4.01889 -14.44339,-14.63293 -12.48031,-25.09752 1.21433,-6.47243 8.12777,-14.12366 14.40836,-15.94594 3.44357,-0.9991 42.1535,-1.337 120.9399,-1.0557 114.54853,0.409 115.9192,0.44643 119.69913,3.26888 7.26643,5.42598 9.53389,9.85171 9.53389,18.60914 0,8.75744 -2.26746,13.18318 -9.53403,18.60914 -3.78367,2.82528 -5.05033,2.85833 -121.08378,3.15943 -95.36971,0.24748 -118.04845,-0.0414 -121.48316,-1.54743 z m 0,-66.47006 c -9.16538,-4.01888 -14.44339,-14.63293 -12.48031,-25.09751 1.21433,-6.47243 8.12777,-14.12366 14.40836,-15.94593 3.44357,-0.9991 42.1535,-1.33701 120.9399,-1.05572 114.54853,0.409 115.9192,0.44643 119.69913,3.26889 7.26643,5.42598 9.53389,9.85171 9.53389,18.60914 0,8.75744 -2.26746,13.18318 -9.53403,18.60913 -3.78367,2.82528 -5.05033,2.85834 -121.08378,3.15943 -95.36971,0.2475 -118.04845,-0.0414 -121.48316,-1.54743 z m -1.97998,-66.06814 c -9.11124,-3.66666 -12.19282,-9.82449 -14.73682,-29.4487 -3.83131,-29.55292 -12.68429,-60.41987 -24.70982,-86.15384 -3.28044,-7.01994 -12.32578,-24.08046 -20.10083,-37.91226 -23.20773,-41.28688 -30.55891,-59.06422 -36.36881,-87.94996 -2.60646,-12.95896 -3.06094,-19.6593 -3.00777,-44.34609 0.0526,-24.61925 0.53189,-31.26322 3.12132,-43.30724 9.79422,-45.55413 29.55716,-82.42267 61.07781,-113.94333 31.51857,-31.51859 68.36833,-51.27241 113.94338,-61.0808 12.06666,-2.59695 18.53642,-3.06176 42.61477,-3.06176 24.07851,0 30.54812,0.46481 42.61479,3.06176 45.58239,9.80998 82.44031,29.56955 113.93507,61.0808 45.28175,45.30537 67.45366,103.34492 64.52691,168.91189 -1.93858,43.42972 -9.89698,67.62168 -39.66892,120.58638 -17.49048,31.11573 -25.0491,47.16528 -31.92459,67.78699 -6.42336,19.26538 -10.21368,35.86657 -12.93646,56.6593 -2.16539,16.53618 -4.45751,22.18284 -10.97794,27.04376 -3.8968,2.90506 -4.2912,2.9152 -123.93895,3.1846 -77.2706,0.17399 -121.25287,-0.22199 -123.46314,-1.1115 z"
       id="path4251"
       inkscape:connector-curvature="0" />
    <path
       inkscape:connector-curvature="0"
       id="path4253"
       d="m 383.5418,961.1158 c -8.76241,-3.06609 -15.95488,-8.4046 -21.34062,-15.83944 -4.15466,-5.73525 -8.20046,-16.95014 -8.20046,-22.7311 l 0,-3.21064 88.81492,0 88.81507,0 -0.89528,6.57777 c -1.96127,14.41088 -12.02332,27.7953 -25.62281,34.08353 -6.14807,2.84272 -8.53558,2.97289 -60.40798,3.29191 -49.06252,0.30177 -54.66206,0.10251 -61.16284,-2.17203 z m -60.76761,-65.8734 c -9.16538,-4.01889 -14.44339,-14.63293 -12.48031,-25.09752 1.21433,-6.47243 8.12777,-14.12366 14.40836,-15.94594 3.44357,-0.9991 42.1535,-1.337 120.9399,-1.0557 114.54853,0.409 115.9192,0.44643 119.69913,3.26888 7.26643,5.42598 9.53389,9.85171 9.53389,18.60914 0,8.75744 -2.26746,13.18318 -9.53403,18.60914 -3.78367,2.82528 -5.05033,2.85833 -121.08378,3.15943 -95.36971,0.24748 -118.04845,-0.0414 -121.48316,-1.54743 z m 0,-66.47006 c -9.16538,-4.01888 -14.44339,-14.63293 -12.48031,-25.09751 1.21433,-6.47243 8.12777,-14.12366 14.40836,-15.94593 3.44357,-0.9991 42.1535,-1.33701 120.9399,-1.05572 114.54853,0.409 115.9192,0.44643 119.69913,3.26889 7.26643,5.42598 9.53389,9.85171 9.53389,18.60914 0,8.75744 -2.26746,13.18318 -9.53403,18.60913 -3.78367,2.82528 -5.05033,2.85834 -121.08378,3.15943 -95.36971,0.2475 -118.04845,-0.0414 -121.48316,-1.54743 z m -1.97998,-66.06814 c -9.11124,-3.66666 -12.19282,-9.82449 -14.73682,-29.4487 -3.83131,-29.55292 -12.68429,-60.41987 -24.70982,-86.15384 -3.28044,-7.01994 -12.32578,-24.08046 -20.10083,-37.91226 -23.20773,-41.28688 -30.55891,-59.06422 -36.36881,-87.94996 -2.60646,-12.95896 -3.06094,-19.6593 -3.00777,-44.34609 0.0526,-24.61925 0.53189,-31.26322 3.12132,-43.30724 9.79422,-45.55413 29.55716,-82.42267 61.07781,-113.94333 31.51857,-31.51859 68.36833,-51.27241 113.94338,-61.0808 12.06666,-2.59695 18.53642,-3.06176 42.61477,-3.06176 24.07851,0 30.54812,0.46481 42.61479,3.06176 45.58239,9.80998 82.44031,29.56955 113.93507,61.0808 45.28175,45.30537 67.45366,103.34492 64.52691,168.91189 -1.93858,43.42972 -9.89698,67.62168 -39.66892,120.58638 -17.49048,31.11573 -25.0491,47.16528 -31.92459,67.78699 -6.42336,19.26538 -10.21368,35.86657 -12.93646,56.6593 -2.16539,16.53618 -4.45751,22.18284 -10.97794,27.04376 -3.8968,2.90506 -4.2912,2.9152 -123.93895,3.1846 -77.2706,0.17399 -121.25287,-0.22199 -123.46314,-1.1115 z"
       style="fill:#ffffff;fill-opacity:1;filter:url(#filter4411)" />
  </g>
</svg>
